<svg width="1364" height="244" viewBox="1 0 1364 244" fill="none" xmlns="http://www.w3.org/2000/svg">
<path fill-rule="evenodd" clip-rule="evenodd" d="M341.5 8.45179V16.4309L340.646 16.4234L339.792 16.4159L337.16 15.9815L333.847 15.4297V12.9078L334.528 12.5348V10.4725L333.135 10.0422H330.502L327.81 10.4725L327.406 11.1238L327.003 11.7757L327.763 12.5348L328.523 13.2938V14.0447V14.7955L313.326 12.9078L298.129 11.0208L280.882 8.95168L263.635 6.88324H261.158H258.681L254.842 9.05943L251.002 11.2363L242.922 16.2775L234.841 21.3187L225.164 26.6026L215.486 31.8873L204.558 37.4877L193.63 43.0887L190.386 45.4518L187.142 47.8148V49.1236V50.4323L188.167 51.4559L189.193 52.4803L191.07 51.9756L192.948 51.4709L194.143 51.7321L195.338 51.994V54.0113V56.0286L196.363 56.4207L197.387 56.8135V71.7441V86.6746H189.874H182.361V82.964V79.2533L181.678 78.8319L180.995 78.4104L180.91 79.3031L180.826 80.1958L180.973 83.7762L181.121 87.3566H175.252H169.384L168.018 85.9926L166.652 84.6287H164.296H161.939L161.379 85.6271L160.82 86.6255L153.32 86.8205L145.82 87.0156L145.623 88.3905L145.426 89.7653L136.446 95.2102L127.466 100.655L124.861 102.535L122.257 104.415V106.042V107.67L123.338 108.084L124.418 108.498H126.311H128.205L128.651 116.852L129.099 125.206L128.468 127.252C128.468 127.252 128.894 129.338 127.838 129.298C126.783 129.259 127.78 126.53 127.78 126.53V124.183L127.466 122.691C127.466 122.691 126.778 120.845 125.844 121.199C124.91 121.553 124.91 122.691 124.91 122.691L123.977 124.183C123.977 124.183 124.66 124.183 123.458 124.183C122.257 124.183 122.94 124.183 122.94 124.183V122.868V121.553L121.844 120.458C121.844 120.458 121.848 119.276 120.748 119.364C119.647 119.452 118.856 119.398 117.114 120.475C115.372 121.553 115.487 122.515 114.519 123.008C113.551 123.501 112.164 121.742 112.164 121.742C112.164 121.742 110.926 120.493 109.808 120.475C108.69 120.458 108.09 121.553 108.09 121.553L107.14 122.868L105.953 125.036C105.953 125.036 106.238 126.611 105.304 126.57C104.369 126.53 103.85 125.036 103.85 125.036L102.397 123.501H101.801H101.206C101.206 123.501 99.8965 124.215 98.9867 125.206C98.0769 126.198 97.7038 127.657 97.7038 127.657C97.7038 127.657 97.2831 129.308 97.7038 130.874C98.1246 132.44 99.3854 133.74 98.5446 134.072C97.7038 134.404 96.7989 132.473 96.7989 132.473L95.0531 130.874L93.5874 131.339L92.1217 131.803L91.3752 133.44L90.6286 135.076L89.0263 136.124L87.424 137.172V139.664V142.156L85.2309 143.985L83.0385 145.812L82.938 147.444L82.8383 149.076L81.9873 150.865L81.1363 152.654L81.9211 154.118L82.7058 155.582L82.2926 156.251L81.8794 156.918H80.2853H78.6912L78.2978 157.941L77.905 158.964H76.9686H76.0322L75.2543 157.259L74.4764 155.554H72.8904H71.3052L70.4856 156.373L69.666 157.191V159.174C69.666 159.174 70.6905 160.678 69.666 161.156C68.6415 161.634 68.6415 160.763 68.6415 160.763L67.617 160.371L66.5925 160.763C66.5925 160.763 66.5041 160.282 65.568 161.156C64.6319 162.03 65.568 163.388 65.568 163.388C65.568 163.388 66.108 164.756 65.568 165.618C65.028 166.481 63.4828 166.481 63.4828 166.481C63.4828 166.481 62.7014 166.631 61.3983 167.343C60.0951 168.055 60.0704 168.257 60.0951 169.893C60.1199 171.529 58.7926 172.442 58.7926 172.442L56.8912 172.919L54.989 173.396L54.1318 174.106L53.274 174.817V176.286V177.756L54.3074 179.229C54.3074 179.229 55.0723 179.505 55.3401 180.702C55.6079 181.898 53.6565 183.302 53.6565 183.302L51.9729 185.902L50.2333 187.806L48.493 189.708V190.319V190.929L49.1432 192.635C49.1432 192.635 50.4436 193.555 49.7934 194.343C49.1432 195.132 47.4009 195.132 47.4009 195.132L45.009 195.919L44.1962 197.219C44.1962 197.219 44.2993 197.962 43.3835 198.519C42.4677 199.076 40.9637 198.519 39.0608 198.519C37.1578 198.519 36.6643 198.041 34.7374 198.519C32.8105 198.996 31.6591 200.634 31.6591 200.634C31.6591 200.634 30.2535 202.782 28.5801 202.749C26.9068 202.717 26.9068 201.179 26.9068 201.179L25.2334 199.61H22.9973C22.9973 199.61 22.8811 199.61 20.7612 199.61C18.6412 199.61 17.2587 201.876 17.2587 201.876L13.7563 204.142L12.9975 205.972C12.9975 205.972 14.0672 207.029 12.238 207.802C10.4088 208.575 7.60769 209.048 6.119 207.51C4.6303 205.972 0 207.218 0 207.218V226.056V244.893H683H1366V149.076V53.2577H1361.5H1356.99L1356.64 54.6217L1356.28 55.9856H1353.63H1350.97V54.3366V52.6876L1351.39 51.6087L1351.8 50.5298H1352.75H1353.71V49.2075V47.8858L1349.27 44.9737L1344.84 42.0624L1344.5 39.9878L1344.16 37.9132L1343.98 35.8673L1343.8 33.8214L1339.04 33.6161L1334.27 33.4108L1333.5 34.4651L1332.73 35.5195L1330 33.5492L1327.28 31.5783L1325 30.4012L1322.72 29.2235L1308.33 30.0248L1293.94 30.8254L1292.44 31.1344L1290.94 31.4433L1290.73 27.5172L1290.53 23.5917H1289.5H1288.48L1288.56 27.5131L1288.64 31.4344H1287.74H1286.84L1286.21 30.3058L1285.57 29.1764L1281.22 29.6299L1276.87 30.0841L1276.64 30.7593L1276.41 31.4344H1265.57H1254.72L1247.77 35.2269L1240.81 39.0187L1238.88 38.2222L1236.96 37.4256L1236.57 36.2131L1236.19 35.0012L1236.98 33.2614L1237.78 31.5217L1237.37 30.4551L1236.96 29.3885H1234.97H1232.98L1232.11 30.4346L1231.24 31.4808L1232.14 33.1619L1233.04 34.8423L1232.64 35.2426L1232.24 35.6436L1226.21 33.106L1220.18 30.569L1212.32 27.3453L1204.47 24.1223L1182.45 23.7908L1160.43 23.4594L1158.07 25.06L1155.71 26.6606H1155.27H1154.83L1153.09 25.2966L1151.35 23.9327H1137.79H1124.22V22.9336V21.9345L1122.9 21.2286L1121.58 20.5228H1119.82H1118.07L1116.7 21.8867L1115.34 23.2507H1107.58H1099.83L1096.6 25.7106L1093.37 28.1705L1088.82 27.586L1084.28 27.0016L1084.04 25.6376L1083.81 24.2737L1082.97 23.5917L1082.13 22.9097L1081.68 21.7163L1081.23 20.5228H1078.94H1076.65L1075.16 22.2332L1073.68 23.9429V24.9386V25.9343L1064.94 25.5169L1056.2 25.0995L1054.69 25.9043L1053.19 26.7083V24.3378V21.9672L1053.87 21.5458L1054.55 21.1243V19.1302V17.1361L1051.14 15.408L1047.72 13.6798L1044.43 15.3432L1041.15 17.0065L1040.36 17.9483L1039.58 18.8895L1040.58 20.8072L1041.57 22.7249V26.9716V31.2176L1024.26 31.6349L1006.94 32.0516L1001.89 34.0716L996.838 36.0923L985.91 40.9617L974.982 45.8303L973.446 46.8321L971.909 47.8333V49.4659V51.0979L972.763 51.3925L973.617 51.6864L962.347 52.0445L951.078 52.4032L944.702 49.2736L938.325 46.1447L937.327 44.2161L936.327 42.2874L934.608 41.6348L932.889 40.9821H927.477H922.064L918.472 39.6188L914.878 38.2549H906.853L898.828 38.2542V37.2312V36.2083H895.754H892.681V37.131V38.0544L887.455 38.4949L882.23 38.9362H874.775H867.32L866.103 39.5861L864.887 40.2367L858.806 44.7187L852.725 49.2006L848.461 52.423L844.198 55.6446L843.769 57.2139L843.34 58.7831L844.453 59.6008L845.566 60.4185L846.005 79.6843L846.443 98.9502H843.518H840.593L840.931 93.6969L841.269 88.4436L842.728 87.4759L844.188 86.5082V84.9103V83.3125L842.993 82.6816L841.797 82.0501L831.026 78.2317L820.256 74.4133L817.565 73.0419L814.874 71.6711H810.145H805.416L805.083 70.3979L804.75 69.1246L801.59 68.6513L798.431 68.178L797.746 68.6008L797.061 69.0237V70.6884V72.3531H788.523H779.986V63.4703V54.5876L781.741 53.922L783.496 53.2557L783.277 51.7219L783.06 50.1888L774.391 47.3156L765.724 44.4418L755.615 42.3433L745.507 40.2442L744.971 39.7089L744.435 39.1742L743.94 32.7466L743.445 26.3196H742.421H741.396L741.49 32.6279L741.584 38.9362H740.944H740.304L738.118 37.7564L735.932 36.5765L731.158 36.2219L726.383 35.8673L726.135 34.5033L725.888 33.1394L724.873 31.9957L723.858 30.852L721.122 30.3903L718.385 29.9286L717.631 30.6815L716.877 31.4344H714.628H712.381L711.528 32.7984L710.674 34.1623H708.147H705.62L705.227 33.5274L704.833 32.8925L705.528 32.4642L706.222 32.0359V31.1623V30.2894L704.482 29.4983L702.743 28.7065H701.219H699.696L698.178 29.7684L696.66 30.8295V32.098V33.3665L697.514 33.7695L698.367 34.1726L695.451 33.8159L692.534 33.4599L690.533 34.4931L688.532 35.5263H687.815H687.098V34.4938V33.462L687.951 32.098L688.804 30.7334L686.756 29.0625L684.707 27.3917L683.219 27.3671L681.731 27.3426L679.292 29.6395L676.853 31.9364V33.1135V34.2899L678.219 34.6465L679.585 35.0032V36.9619V38.9212L674.292 41.5741L668.998 44.227L662.951 46.723L656.903 49.2184L652.895 51.2384L648.889 53.2577H648.187H647.484V49.5068V45.756H648.167H648.85V43.7557V41.7562L647.425 41.304L645.999 40.8525L643.668 41.289L641.337 41.7262V43.4215V45.117L642.362 45.5091L643.386 45.9019V50.834V55.7667L641.678 56.5435L639.971 57.3203V59V60.679L640.654 61.1005L641.337 61.5219V64.4708V67.4203L639.8 67.8316L638.263 68.2428L635.987 68.2517L633.71 68.2612L633.991 67.4087L634.272 66.5563L636.803 66.2153L639.333 65.8743L639.311 65.3628L639.288 64.8513V62.8252V60.7983L637.07 60.2248L634.853 59.6512L634.4 56.4889L633.947 53.3266L633.504 52.6098L633.06 51.8938H631.735H630.409V55.3036V58.7135H629.548H628.689L628.695 56.4971L628.701 54.2807L626.437 54.0638L624.173 53.8469L623.234 54.6244L622.295 55.4025L622.083 56.5748L621.871 57.7472L613.675 55.6726L605.479 53.5987L605.48 50.804L605.482 48.0092L606.345 46.9706L607.208 45.9319L606.66 44.4527L606.112 42.9728L604.2 41.7207L602.287 40.4679L598.932 41.883L595.576 43.2988V45.1033V46.9085L596.942 48.1429L598.308 49.3773V50.7153V52.0527L597.113 51.6946L595.917 51.3366L588.575 48.7894L581.233 46.2415V44.334V42.4265L581.916 42.0051L582.599 41.5836V39.9189V38.2542H581.916H581.233V37.2878V36.3222L582.087 36.0119L582.94 35.7016L582.186 34.4208L581.432 33.1394L578.374 31.8675L575.316 30.5956L571.103 32.1294L566.89 33.6631V34.5149V35.3674L565.437 35.7466L563.983 36.1264L564.317 37.8723L564.652 39.6182L564.234 39.6079L563.816 39.597L562.888 39.0098L561.959 38.4227L558.107 39.3897L554.254 40.3574L552.426 41.0728L550.597 41.7889L541.498 39.2785L532.398 36.7682L528.058 35.4656L523.717 34.1623H521.835H519.952L515.247 36.2437L510.542 38.3251L506.235 40.457L501.928 42.5889L497.193 41.3627L492.458 40.1365L487.499 41.9935L482.539 43.8512L472.74 47.2256L462.942 50.5994L457.544 48.0699L452.146 45.5411L452.136 44.1138L452.128 42.6871L451.708 41.1246L451.289 39.5622L450.522 39.818L449.755 40.0737L449.992 42.3713L450.229 44.6682L449.237 43.8464L448.246 43.0253L447.855 38.4233L447.464 33.8214L447 32.6279L446.536 31.4344H445.935H445.334L445.766 36.5493L446.199 41.6641L445.587 41.6614L444.974 41.6593L442.755 40.3076L440.535 38.956V37.2817V35.6068L441.218 35.1853L441.901 34.7638V34.251V33.7375L440.508 32.2453L439.116 30.7525H438.101H437.086L436.395 32.5686L435.703 34.3847L436.412 35.0919L437.12 35.7991V36.6993V37.6002L434.217 36.1387L431.314 34.6779L425.168 30.9127L419.02 27.1475L416.035 25.1091L413.05 23.0713L394.238 23.1743L375.427 23.2773L370.928 26.8863L366.43 30.4953L365.525 31.0362L364.621 31.5777L362.896 29.9716L361.172 28.3655L357.663 23.9327L354.154 19.4998L353.121 18.691L352.086 17.8822L347.902 17.4273L343.718 16.9724L343.411 9.52318L343.104 2.07393L342.302 1.2733L341.5 0.472656V8.45179Z" fill="black"/>
</svg>
